HIERARCHY
ROOT joint_0
{
	OFFSET 0.000000 0.000000 0.000000
	CHANNELS 6 Xposition Yposition Zposition Zrotation Yrotation Xrotation 
	JOINT joint_1
	{
		OFFSET 14.113007 -2.961990 123.953979
		CHANNELS 3 Zrotation Yrotation Xrotation
		JOINT joint_2
		{
			OFFSET 0.764000 -2.434006 113.871948
			CHANNELS 3 Zrotation Yrotation Xrotation
			JOINT joint_3
			{
				OFFSET 0.186996 -2.169998 113.753052
				CHANNELS 3 Zrotation Yrotation Xrotation
				JOINT joint_4
				{
					OFFSET 16.096001 -2.720001 160.853027
					CHANNELS 3 Zrotation Yrotation Xrotation
					JOINT joint_5
					{
						OFFSET 34.392006 -0.188995 92.567017
						CHANNELS 3 Zrotation Yrotation Xrotation
						End Site
						{
							OFFSET 0.000000 0.000000 0.000000
						}
					}
				}
				JOINT joint_6
				{
					OFFSET 9.183998 -36.684006 89.597046
					CHANNELS 3 Zrotation Yrotation Xrotation
					JOINT joint_7
					{
						OFFSET 0.486000 -164.365997 -28.984009
						CHANNELS 3 Zrotation Yrotation Xrotation
						JOINT joint_8
						{
							OFFSET 38.899002 -34.967010 -291.651978
							CHANNELS 3 Zrotation Yrotation Xrotation
							JOINT joint_9
							{
								OFFSET 41.714005 -45.890991 -258.857056
								CHANNELS 3 Zrotation Yrotation Xrotation
								End Site
								{
									OFFSET 0.000000 0.000000 0.000000
								}
							}
						}
					}
				}
				JOINT joint_10
				{
					OFFSET 8.867004 33.650002 90.817993
					CHANNELS 3 Zrotation Yrotation Xrotation
					JOINT joint_11
					{
						OFFSET 0.018997 164.299999 -29.368042
						CHANNELS 3 Zrotation Yrotation Xrotation
						JOINT joint_12
						{
							OFFSET 29.440994 30.887997 -293.216919
							CHANNELS 3 Zrotation Yrotation Xrotation
							JOINT joint_13
							{
								OFFSET 46.174011 54.490005 -256.422058
								CHANNELS 3 Zrotation Yrotation Xrotation
								End Site
								{
									OFFSET 0.000000 0.000000 0.000000
								}
							}
						}
					}
				}
			}
		}
	}
	JOINT joint_14
	{
		OFFSET -2.264000 -89.466995 -116.150024
		CHANNELS 3 Zrotation Yrotation Xrotation
		JOINT joint_15
		{
			OFFSET -16.400993 -17.452988 -493.781982
			CHANNELS 3 Zrotation Yrotation Xrotation
			JOINT joint_16
			{
				OFFSET -50.497004 -13.404022 -424.754013
				CHANNELS 3 Zrotation Yrotation Xrotation
				JOINT joint_17
				{
					OFFSET 198.546007 -19.341003 -89.309000
					CHANNELS 3 Zrotation Yrotation Xrotation
					End Site
					{
						OFFSET 0.000000 0.000000 0.000000
					}
				}
			}
		}
	}
	JOINT joint_18
	{
		OFFSET -0.867996 96.016006 -110.817993
		CHANNELS 3 Zrotation Yrotation Xrotation
		JOINT joint_19
		{
			OFFSET -10.130997 24.658998 -493.645020
			CHANNELS 3 Zrotation Yrotation Xrotation
			JOINT joint_20
			{
				OFFSET -48.871004 19.434999 -424.714005
				CHANNELS 3 Zrotation Yrotation Xrotation
				JOINT joint_21
				{
					OFFSET 195.579996 24.926001 -94.327003
					CHANNELS 3 Zrotation Yrotation Xrotation
					End Site
					{
						OFFSET 0.000000 0.000000 0.000000
					}
				}
			}
		}
	}
}
MOTION
Frames: 8
Frame Time: 0.016667
-2511.962891 867.559448 1143.035034 2.446382 1.032886 -0.948000 -0.511589 -1.585633 0.334901 -0.462295 0.208558 -0.086403 -0.474404 -0.412532 0.037480 -0.522598 -0.053189 1.392376 0.000000 0.000000 0.000000 -0.646716 6.102780 -6.328564 -4.282008 6.656426 -7.775795 -171.276037 -88.571614 -153.301381 0.000000 0.000000 0.000000 7.481149 6.878883 8.918422 -4.031385 8.360305 12.671773 169.011311 -86.437481 176.759898 0.000000 0.000000 0.000000 1.273322 2.150042 -0.569258 1.445170 -2.873264 -0.377711 1.310745 -1.367443 0.456003 0.000000 0.000000 0.000000 -1.792429 1.577828 1.257146 -1.995591 -2.938613 0.355849 -1.769286 -0.709225 -0.761592 0.000000 0.000000 0.000000 
-2501.868652 867.721985 1143.045044 2.612600 1.359265 -0.921634 -0.641174 -1.901041 0.223204 -0.584745 0.256013 -0.077592 -0.598415 -0.464047 0.031156 -0.565600 -0.030996 1.502159 0.000000 0.000000 0.000000 -0.005765 3.926376 -5.671753 -5.629539 4.995110 -8.779651 -171.708723 -86.263053 -150.961762 0.000000 0.000000 0.000000 6.411800 5.199275 8.007286 -3.234161 7.062139 14.085915 169.402104 -83.642440 177.024160 0.000000 0.000000 0.000000 1.213846 2.229038 -0.539310 1.381344 -2.600408 -0.407048 1.251055 -1.319624 0.433578 0.000000 0.000000 0.000000 -1.791746 1.730562 1.235796 -1.999030 -2.879200 0.337301 -1.778917 -0.748476 -0.760789 0.000000 0.000000 0.000000 
-2491.839355 867.997803 1143.378052 2.772023 1.653988 -0.938107 -0.756528 -2.125030 0.242729 -0.696012 0.285857 -0.114145 -0.710922 -0.499150 0.028782 -0.608626 -0.061003 1.610574 0.000000 0.000000 0.000000 0.740716 1.829490 -4.998541 -6.631442 3.443779 -9.252735 -172.111449 -85.542420 -149.399506 0.000000 0.000000 0.000000 5.334855 3.380511 7.144312 -2.589973 5.646461 15.079793 169.719224 -82.846222 177.324877 0.000000 0.000000 0.000000 1.190223 1.831483 -0.565582 1.290262 -1.299174 -0.229862 1.227486 -1.584869 0.396957 0.000000 0.000000 0.000000 -1.804700 1.812779 1.302414 -1.997989 -2.606605 0.238726 -1.804959 -0.840201 -0.761164 0.000000 0.000000 0.000000 
-2481.896240 868.422668 1144.243042 2.915454 1.912435 -0.946189 -0.834032 -2.281795 0.261046 -0.771888 0.310968 -0.105126 -0.787588 -0.527905 0.023351 -0.651628 -0.109231 1.716055 0.000000 0.000000 0.000000 1.801503 0.154737 -4.474050 -6.921630 2.206046 -8.922209 -172.333579 -86.974513 -149.454149 0.000000 0.000000 0.000000 4.250293 1.520206 6.533532 -2.217876 4.166563 15.222190 169.834501 -84.722813 177.925086 0.000000 0.000000 0.000000 1.210579 0.896645 -0.729572 1.167494 1.203943 0.190325 1.255636 -2.112575 0.357587 0.000000 0.000000 0.000000 -1.830147 1.804602 1.401460 -1.989586 -2.074308 0.053692 -1.846595 -0.960794 -0.765253 0.000000 0.000000 0.000000 
-2472.018311 868.961792 1145.430054 3.048833 2.144505 -0.939343 -0.897277 -2.359701 0.288748 -0.830430 0.324233 -0.080111 -0.845856 -0.538621 0.024794 -0.695586 -0.211051 1.825051 0.000000 0.000000 0.000000 3.002054 -1.241219 -3.964803 -6.731111 1.167958 -8.301844 -172.375582 -89.741164 -150.530754 0.000000 0.000000 0.000000 3.123005 -0.297604 5.917419 -1.927045 2.703858 15.034020 169.876671 -88.299344 178.587912 0.000000 0.000000 0.000000 1.267346 -0.509797 -1.031648 1.020665 4.691958 0.828777 1.351824 -2.705840 0.340817 0.000000 0.000000 0.000000 -1.868565 1.717225 1.514983 -1.979091 -1.331061 -0.195391 -1.904067 -1.093818 -0.774998 0.000000 0.000000 0.000000 
-2462.363037 869.622620 1146.545044 3.032142 2.401993 -0.990636 -0.950007 -2.276889 0.547600 -0.866621 0.318604 -0.174128 -0.880312 -0.506832 0.035090 -0.720059 -0.451334 1.885335 0.000000 0.000000 0.000000 3.913713 -2.466344 -3.473510 -6.451125 0.269117 -7.858751 7.731690 -88.025682 28.460580 0.000000 0.000000 0.000000 2.216323 -1.768261 5.416422 -1.648123 1.532320 14.836445 -10.060590 -88.515965 -0.999935 0.000000 0.000000 0.000000 1.414976 -2.607010 -1.456707 0.905699 9.298538 1.744864 1.619898 -3.350018 0.392115 0.000000 0.000000 0.000000 -1.898584 1.590480 1.702003 -1.955996 -0.547218 -0.469287 -1.957520 -1.265605 -0.777206 0.000000 0.000000 0.000000 
-2453.060547 870.548950 1147.537964 2.720560 2.741590 -1.020107 -0.989091 -1.960988 0.904110 -0.868486 0.307824 -0.322084 -0.877106 -0.410239 0.056226 -0.703593 -0.943978 1.836970 0.000000 0.000000 0.000000 4.437126 -3.549640 -3.093280 -6.125236 -0.488154 -7.431785 8.059288 -86.923008 27.926882 0.000000 0.000000 0.000000 1.629913 -2.796132 5.285858 -1.376825 0.744007 14.301114 -9.967698 -86.341591 -1.062168 0.000000 0.000000 0.000000 1.690245 -5.777893 -2.239520 0.864837 15.639689 3.142590 2.216094 -3.716290 0.605428 0.000000 0.000000 0.000000 -1.902388 1.361550 1.854961 -1.902411 0.285421 -0.762524 -1.987345 -1.443885 -0.766128 0.000000 0.000000 0.000000 
-2443.981445 871.598877 1148.458984 2.311509 3.085253 -0.868478 -1.030563 -1.439284 0.984290 -0.872054 0.266192 -0.331923 -0.873538 -0.282470 0.087841 -0.662788 -1.588069 1.720818 0.000000 0.000000 0.000000 4.712489 -4.433131 -2.860052 -5.713899 -1.085632 -6.932146 8.531794 -86.367342 27.541474 0.000000 0.000000 0.000000 1.280076 -3.486559 5.482114 -1.111883 0.218765 13.476349 -9.834806 -84.639655 -1.426387 0.000000 0.000000 0.000000 1.964433 -9.562268 -3.401993 0.923539 22.868487 4.690365 3.143576 -3.206040 1.029835 0.000000 0.000000 0.000000 -1.915051 1.101336 1.786126 -1.862001 1.146516 -1.034145 -2.022986 -1.550388 -0.765313 0.000000 0.000000 0.000000 
